<svg width="960" height="960" viewBox="0 0 960 960" fill="none" xmlns="http://www.w3.org/2000/svg"><path d="M19.776 460.8h103.537a19.776 19.776 0 0 0 0-39.552H19.776a19.776 19.776 0 0 0 0 39.503m0 79.008h103.537a19.776 19.776 0 0 0 0-39.503H19.776a19.776 19.776 0 0 0 0 39.503m123.264 59.232a19.68 19.68 0 0 0-19.68-19.776H19.727a19.727 19.727 0 1 0 0 39.503h103.537a19.68 19.68 0 0 0 19.776-19.776" fill="#000"/><path d="M279.36 322.56a97.92 97.92 0 0 0-97.824-97.92 97.92 97.92 0 0 0-97.824 97.92v39.407a19.776 19.776 0 0 0 39.503 0V322.56c0-32.16 26.161-58.368 58.321-58.368s58.321 26.161 58.321 58.368l.047 408a19.2 19.2 0 0 0 6.863 14.208c22.225 19.2 34.944 46.656 34.944 75.36A100.32 100.32 0 0 1 181.63 920.305 100.32 100.32 0 0 1 81.453 820.128c0-28.655 12.721-56.16 34.991-75.36a21.6 21.6 0 0 0 6.816-15.697v-51.023a19.776 19.776 0 0 0-39.503 0v43.2a139.2 139.2 0 0 0-41.808 98.976 139.87 139.87 0 0 0 139.68 139.68 139.87 139.87 0 0 0 139.68-139.68c0-37.152-15.215-72.768-41.903-99.025V322.56" fill="#000"/><path d="M940.081.864 140.16 0a19.68 19.68 0 0 0-19.823 19.823v118.08a19.776 19.776 0 0 0 39.503 0v-98.4l360.48.337v759.983H420a19.727 19.727 0 1 0 0 39.503h520.032a19.68 19.68 0 0 0 19.776-19.727V20.591A19.68 19.68 0 0 0 940.032.864m-19.68 799.104h-360.48V39.936l360.48.384z" fill="#000"/><path d="M745.056 736.081a24 24 0 0 0 0-48 24 24 0 1 0 0 48m-399.311-48.049a24 24 0 1 0-.047 47.904 24 24 0 0 0 0-47.904" fill="#000"/></svg>