<svg width="750" height="750" viewBox="0 0 750 750" fill="none" xmlns="http://www.w3.org/2000/svg"><path d="M455.75 142.656v345.157a115.63 115.63 0 0 1 36.438 83.531c0 64.062-52.532 116.156-117.188 116.156-64.594 0-117.188-52.125-117.188-116.156 0-31.344 13.188-61.438 36.344-83.5v-39.188c0-7.125 5.781-12.844 12.938-12.844s12.969 5.75 12.969 12.844v44.219a14.06 14.06 0 0 1-4.438 10.375 90 90 0 0 0-31.875 68.125c0 49.906 40.938 90.469 91.25 90.469 50.25 0 91.219-40.625 91.219-90.469 0-25.938-11.656-50.719-31.938-68.125a12.5 12.5 0 0 1-4.469-9V142.656c0-30.031-24.594-54.438-54.844-54.438s-54.875 24.406-54.875 54.438v27.625a12.94 12.94 0 0 1-12.969 12.875 12.94 12.94 0 0 1-12.969-12.875v-27.625C294.156 98.438 330.406 62.5 375 62.5s80.781 35.969 80.781 80.156" fill="#000"/><path d="M376.5 249.063h-90a12.94 12.94 0 0 1-12.969-12.875c0-7.094 5.813-12.875 12.969-12.875h90c7.156 0 12.969 5.781 12.969 12.875a12.94 12.94 0 0 1-12.969 12.844m0 76.593h-90a12.94 12.94 0 0 1-12.969-12.875c0-7.063 5.813-12.844 12.969-12.844h90c7.156 0 12.969 5.75 12.969 12.875a12.94 12.94 0 0 1-12.969 12.844m-90 76.438h90a12.94 12.94 0 0 0 12.969-12.875 12.94 12.94 0 0 0-12.969-12.844h-90a12.94 12.94 0 0 0-12.969 12.875c0 7.063 5.813 12.844 12.969 12.844" fill="#000"/></svg>