<svg width="960" height="960" viewBox="0 120 750 700" xmlns="http://www.w3.org/2000/svg"><path d="M59.167 235.833V230.5v130.8l9.9 4.9v175.4l-11.3-4.9v135.7l106 70.7 484.4-81.3v-75.316l53-6.4v-225.3l-47.6-17.6v-104.5l-118.1-26.8-475.2 19.1" stroke-width="40" stroke="#000" stroke-linecap="round" stroke-linejoin="round" fill="none"/><path d="m60.1 227 104.7 29.7v124.4l43.8 21.2 494.1-45.2-49.4-18.8-486.43 38.16" fill="none" stroke-width="20" stroke="#000" stroke-linejoin="round" stroke-linecap="round"/><path stroke="#000" stroke-linecap="round" stroke-width="20" d="m165.5 257.4 488.6-24.1"/><path d="M649.219 576.25 207.85 636.694v-247.5 246.431l-40.3-23.3v121.6" stroke-linejoin="round" stroke="#000" fill="none" stroke-width="20" stroke-linecap="round"/><circle r="17" cx="345.417" cy="546.667" stroke="#000" stroke-width="10" fill="none"/><circle r="17.7" cx="294.583" cy="551.917" fill="none" stroke="#000" stroke-width="10"/><circle r="5" cx="241.04" cy="439.64"/><circle r="5" cx="241.04" cy="458.91"/><circle r="5" cx="241.04" cy="478.89"/><circle r="18" cx="245.25" cy="557.917" fill="none" stroke="#000" stroke-width="10"/></svg>