<svg width="750" height="750" viewBox="0 0 750 750" fill="none" xmlns="http://www.w3.org/2000/svg"><path d="M658.781 517.969c-2.969-5.25-11.063-7.625-16.531-5.719-111.25 40.563-234.563-5.844-293.563-110.125-58.999-104.25-36.593-236.437 53.282-314.344 1.125-1.031 3.438-4.813 4.188-6.156a13.13 13.13 0 0 0-.125-12.75 13.13 13.13 0 0 0-11.5-6.375c-53.719 0-106.531 14.406-152.719 41.688C170.907 145.907 120.188 213.313 99 293.907c-21.188 80.625-10.313 164.875 30.656 237.156s107 124.031 186.063 145.688a299.8 299.8 0 0 0 232.5-31.25A309.4 309.4 0 0 0 660.25 530.876c2.219-3.969.781-8.938-1.469-12.906M535.593 623.283a275 275 0 0 1-213.344 28.594c-72.563-19.844-133.219-67.313-170.75-133.688a290 290 0 0 1-28.125-217.625 284.38 284.38 0 0 1 131.001-174.126A275 275 0 0 1 363.125 90c-80 87.375-96.125 219.188-36.25 324.938 60 105.969 180.313 157.75 293.656 130.938a281.25 281.25 0 0 1-84.906 77.406" fill="#000"/></svg>