<svg width="960" height="960" viewBox="0 0 960 960" fill="none" xmlns="http://www.w3.org/2000/svg"><path d="M733.56 118.48a84 84 0 0 1 89.12 18.92c32.48 32.52 32.48 85.52.72 117.44L657.88 401a16.4 16.4 0 0 0 10.88 28.84 16 16 0 0 0 10.88-4.16L845.96 278.8A116.52 116.52 0 0 0 721.68 87.76a16.4 16.4 0 1 0 11.88 30.72" fill="#000"/><path fill-rule="evenodd" clip-rule="evenodd" d="M596.4 480a116.56 116.56 0 0 0-116.44-116.48A116.52 116.52 0 0 0 363.56 480a116.6 116.6 0 0 0 116.4 116.48A116.56 116.56 0 0 0 596.4 480M480 563.48a83.6 83.6 0 0 1-83.52-83.56A83.6 83.6 0 0 1 480 396.44 83.6 83.6 0 0 1 563.52 480 83.6 83.6 0 0 1 480 563.52" fill="#000"/><path d="M664.52 162.6a368 368 0 0 0-168.8-49.36A16.4 16.4 0 0 1 480 96.12c.32-9.12 8.6-16.8 17.16-15.8 64.64 2.8 128.2 21.36 183.88 53.8a16.52 16.52 0 0 1-8.24 30.72 16 16 0 0 1-8.28-2.24M228.2 840.8a83.6 83.6 0 0 1-90.84-18.24c-32.56-32.6-32.56-85.56-.76-117.44l165.6-146.16a16.44 16.44 0 1 0-21.8-24.72L114.08 681.2A116.6 116.6 0 0 0 196.4 880c14.84 0 29.92-2.88 44.28-8.76a16.52 16.52 0 0 0-12.48-30.48m67.32-43.4a368 368 0 0 0 168.72 49.32 16.44 16.44 0 0 1-.68 32.88h-.68a400 400 0 0 1-183.96-53.68 16.48 16.48 0 0 1 16.6-28.52m554.28-87a16.4 16.4 0 0 0-8.96 21.48c12.72 31.2 5.6 66.88-18.28 90.8-32.56 32.4-85.52 32.48-117.44.72L558.96 657.8a16.52 16.52 0 0 0-24.68 21.8l146.88 166.24a116 116 0 0 0 82.36 34.12c29.8 0 59.6-11.36 82.28-34.12a116.4 116.4 0 0 0 25.52-126.44 16.56 16.56 0 0 0-21.52-9.04m-3.08-214.64a16 16 0 0 1 17.12-15.76c9.08.4 16.12 8.04 15.8 17.2a400 400 0 0 1-53.76 183.88 16.52 16.52 0 0 1-28.52-16.56 368 368 0 0 0 49.36-168.76m-737.2-247.2a16.4 16.4 0 0 0 9.28-21.36 83.6 83.6 0 0 1 136-90.56L401 302.12a16.4 16.4 0 0 0 23.2 1.48 16.4 16.4 0 0 0 1.48-23.2L278.8 114A116.48 116.48 0 0 0 88.12 239.2a16.56 16.56 0 0 0 21.36 9.28M96.88 480h-.72a16.4 16.4 0 0 1-15.76-17.16 400 400 0 0 1 53.76-183.92 16.48 16.48 0 0 1 28.52 16.6 368 368 0 0 0-49.36 168.68 16.4 16.4 0 0 1-16.44 15.76m518.24-291.4-81 91.72a16.48 16.48 0 0 0 24.68 21.8l81.04-91.68a16.44 16.44 0 1 0-24.72-21.84M344.8 771.36a16 16 0 0 1-12.32 5.56 16.44 16.44 0 0 1-12.32-27.32l81.16-91.72a16.44 16.44 0 1 1 24.64 21.76zm311.72-235.88a16.4 16.4 0 0 0 1.4 23.2l91.68 81.12c3.08 2.8 6.96 4.12 10.84 4.12a16 16 0 0 0 12.32-5.52 16.4 16.4 0 0 0-1.4-23.2l-91.68-81.12a16.4 16.4 0 0 0-23.2 1.4M188.56 344.8a16.48 16.48 0 0 1 21.84-24.64l91.76 81.08a16.48 16.48 0 0 1-21.84 24.64z" fill="#000"/></svg>