<svg width="100" height="100" version="1.1" viewBox="0 0 57.851 38" xmlns="http://www.w3.org/2000/svg">
	<g transform="matrix(.89541 0 0 .89541 -2.8151 10.493)" stroke-width="1.1168">
		<path d="m61.191 3.69c-8.001-0.596-10.337 3.63-10.929 7.653-1.053 7.153 4.98 7.483 4.98 7.483s3.465 0.534 6.219-0.266c3.503-1.018 5.358-3.763 5.836-7.217 0.664-4.804-1.171-7.286-6.106-7.653m0.777 7.652c-0.358 2.607-1.31 5.72-3.956 5.743-2.618-0.055-2.78-3.11-2.418-5.743 0.362-2.635 1.303-5.77 4.014-5.902 2.826-0.055 2.72 3.292 2.36 5.902"/>
		<path d="m11.221 3.897-5.58-8e-3 -2.172 14.728h5.576l1.901-12.85c0.168-2e-3 0.388-0.052 0.695-0.114 4.985-0.91 4.966 1.257 4.79 2.459l-1.542 10.505h5.578l1.568-10.576c0.234-1.831-0.595-5.451-10.814-4.144"/>
		<polygon points="28.795 18.634 30.283 8.701 24.704 8.701 23.218 18.634"/>
		<polygon points="24.915 7.075 30.496 7.075 31.005 3.624 25.424 3.624"/>
		<path d="m44.891 10.128c1.061-0.293 2.462-0.674 2.721-2.502l0.608-3.737h-5.605l-0.516 3.327s-0.328 2.175-3.227 1.954l1.334-9.17h-5.58l-2.748 18.617h5.604l1.019-6.732c0.195-0.012 0.236-0.019 0.501-0.057 4.717-0.721 3.935 2.449 3.935 2.449l-0.647 4.34 5.608-2e-3 0.429-3.157c0.532-3.518-1.22-4.871-3.436-5.33"/>
	</g>
</svg>