<svg width="64" height="64" viewBox="0 0 64 64" xmlns="http://www.w3.org/2000/svg"><path d="M36 8a2 2 0 0 1 2 2v2.828a21.9 21.9 0 0 1 7.3 3.646 2 2 0 0 1 .135-.152l1.414-1.414a2 2 0 0 1 2.829 0l1.414 1.414a2 2 0 0 1 0 2.829l-1.414 1.414a2 2 0 0 1-.151.136A21.9 21.9 0 0 1 54 34c0 12.15-9.85 22-22 22s-22-9.85-22-22c0-10.07 6.766-18.56 16-21.172V10a2 2 0 0 1 2-2zm-4 8c-9.941 0-18 8.059-18 18s8.059 18 18 18 18-8.059 18-18-8.059-18-18-18m0 2c2.582 0 5.02.611 7.18 1.697l-1.591 1.463A13.95 13.95 0 0 0 32 20c-7.732 0-14 6.268-14 14s6.268 14 14 14 14-6.268 14-14c0-1.987-.414-3.877-1.16-5.589l1.463-1.59A15.9 15.9 0 0 1 48 34c0 8.837-7.163 16-16 16s-16-7.163-16-16 7.163-16 16-16m11.314 4.686c.395.395.408 1.032.03 1.443l-7.655 8.321a4.001 4.001 0 0 1-4.927 5.355l-1.65 1.794c-.718.78-1.931.83-2.711.113l-.058-.055a1.92 1.92 0 0 1 0-2.713l.058-.055 1.794-1.651a4 4 0 0 1 5.355-4.927l8.32-7.655a1.043 1.043 0 0 1 1.444.03"/></svg>
