<svg width="960" height="960" viewBox="0 -50 1070 960" fill="none" xmlns="http://www.w3.org/2000/svg"><path d="M817.536 674.64a24 24 0 1 0 0 47.952 24 24 0 0 0 0-47.952m15.312-554.016a24 24 0 1 0 0 47.904 24 24 0 0 0 0-47.904m-561.36 24.048a24 24 0 0 0-48 0 24 24 0 0 0 48 0" fill="#000"/><path d="M940.08.096 140.112 0a19.68 19.68 0 0 0-19.728 19.824V132.96a19.776 19.776 0 0 0 39.504 0V39.552l360.48.048v360.48H378.96a19.776 19.776 0 0 0 0 39.504h141.456v360.48h-104.88a19.728 19.728 0 1 0 0 39.504H940.08a19.68 19.68 0 0 0 19.776-19.776V19.872A19.68 19.68 0 0 0 940.08.096M559.92 39.552l360.48.048v360.432H559.92zm0 760.512v-360.48H920.4v360.48zM19.776 460.8h103.536a19.776 19.776 0 0 0 0-39.552H19.776a19.776 19.776 0 0 0 0 39.504m0 79.008h103.536a19.776 19.776 0 0 0 0-39.504H19.776a19.776 19.776 0 0 0 0 39.504m123.264 59.232a19.68 19.68 0 0 0-19.68-19.776H19.728a19.728 19.728 0 1 0 0 39.504h103.536a19.68 19.68 0 0 0 19.776-19.776" fill="#000"/><path d="M279.36 322.56a97.92 97.92 0 0 0-97.824-97.92 97.92 97.92 0 0 0-97.824 97.92v39.408a19.776 19.776 0 0 0 39.504 0V322.56c0-32.16 26.16-58.368 58.32-58.368s58.32 26.16 58.32 58.368l.048 408a19.2 19.2 0 0 0 6.864 14.208c22.224 19.2 34.944 46.656 34.944 75.36a100.32 100.32 0 0 1-100.08 100.176A100.32 100.32 0 0 1 81.456 820.128c0-28.656 12.72-56.16 34.992-75.36a21.6 21.6 0 0 0 6.816-15.696v-51.024a19.776 19.776 0 0 0-39.504 0v43.2a139.2 139.2 0 0 0-41.808 98.976 139.87 139.87 0 0 0 139.68 139.68 139.87 139.87 0 0 0 139.68-139.68c0-37.152-15.216-72.768-41.904-99.024V322.56" fill="#000"/></svg>