<svg width="960" height="960" viewBox="0 0 960 960" fill="none" xmlns="http://www.w3.org/2000/svg"><path d="M818.16 673.824a24 24 0 1 0 0 47.904 24 24 0 0 0 0-47.904m0-556.128a24 24 0 1 0 0 47.904 24 24 0 0 0 0-47.952m-532.08 24a24 24 0 0 0-48 0 24 24 0 0 0 48 0" fill="#000"/><path d="M940.032 0h-799.92a19.68 19.68 0 0 0-19.728 19.776v118.08a19.776 19.776 0 0 0 39.504 0V39.552h360.48v227.136H339.456a19.776 19.776 0 0 0 0 39.504h180.912v227.04H339.456a19.776 19.776 0 0 0 0 39.552h180.912v227.088H380.256a19.728 19.728 0 1 0 0 39.504h559.776a19.68 19.68 0 0 0 19.728-19.728V19.824A19.68 19.68 0 0 0 940.032 0m-380.16 39.552h360.48v227.136h-360.48zm0 266.64h360.48v227.04h-360.48zm0 493.776V572.784h360.48v227.088h-360.48z" fill="#000"/><path d="M818.16 395.76a24 24 0 1 0 0 47.904 24 24 0 0 0 0-47.904M19.776 460.8h103.536a19.776 19.776 0 0 0 0-39.552H19.776a19.776 19.776 0 0 0 0 39.504m0 79.008h103.536a19.776 19.776 0 0 0 0-39.504H19.776a19.776 19.776 0 0 0 0 39.504m123.264 59.232a19.68 19.68 0 0 0-19.68-19.776H19.728a19.728 19.728 0 1 0 0 39.504h103.536a19.68 19.68 0 0 0 19.776-19.776" fill="#000"/><path d="M279.36 322.56a97.92 97.92 0 0 0-97.824-97.92 97.92 97.92 0 0 0-97.824 97.92v39.408a19.776 19.776 0 0 0 39.504 0V322.56c0-32.16 26.16-58.368 58.32-58.368s58.32 26.16 58.32 58.368l.048 408a19.2 19.2 0 0 0 6.864 14.208c22.224 19.2 34.944 46.656 34.944 75.36a100.32 100.32 0 0 1-100.08 100.176A100.32 100.32 0 0 1 81.456 820.128c0-28.656 12.72-56.16 34.992-75.36a21.6 21.6 0 0 0 6.816-15.696v-51.024a19.776 19.776 0 0 0-39.504 0v43.2a139.2 139.2 0 0 0-41.808 98.976 139.87 139.87 0 0 0 139.68 139.68 139.87 139.87 0 0 0 139.68-139.68c0-37.152-15.216-72.768-41.904-99.024V322.56" fill="#000"/></svg>