<svg width="960" height="960" viewBox="0 0 960 960" fill="none" xmlns="http://www.w3.org/2000/svg"><path d="M827.88 250.92 535.68 82.2a16.48 16.48 0 0 0-16.48 28.52l284 163.96v328.08a16.44 16.44 0 1 0 32.96 0V265.2a16.4 16.4 0 0 0-8.28-14.32m-69.6 429.64-284 164-284.04-164a16.4 16.4 0 1 0-16.48 28.52L466 877.8a16.4 16.4 0 0 0 16.48 0L774.68 709a16.4 16.4 0 1 0-16.4-28.48M435.4 88.28a16.4 16.4 0 0 0-22.48-6.08L120.6 250.92a16.4 16.4 0 0 0-8.24 14.32V602.8a16.48 16.48 0 0 0 32.92 0V274.72l284.04-163.96a16.52 16.52 0 0 0 6-22.48" fill="#000"/></svg>