<svg width="750" height="750" viewBox="0 0 750 750" fill="none" xmlns="http://www.w3.org/2000/svg"><path d="M15.45 360h80.89a15.45 15.45 0 0 0 0-30.9H15.45a15.45 15.45 0 0 0 0 30.86m0 61.72h80.89a15.45 15.45 0 0 0 0-30.86H15.45a15.45 15.45 0 0 0 0 30.86m96.3 46.27a15.37 15.37 0 0 0-15.37-15.45H15.41a15.41 15.41 0 1 0 0 30.86H96.3a15.37 15.37 0 0 0 15.45-15.45" fill="#000"/><path d="M218.25 252a76.5 76.5 0 0 0-76.42-76.5A76.5 76.5 0 0 0 65.41 252v30.79a15.45 15.45 0 0 0 30.86 0V252c0-25.13 20.44-45.6 45.56-45.6s45.56 20.44 45.56 45.6l.04 318.75a15 15 0 0 0 5.36 11.1c17.36 15 27.3 36.45 27.3 58.88a78.37 78.37 0 0 1-78.19 78.26 78.37 78.37 0 0 1-78.26-78.26c0-22.39 9.94-43.87 27.34-58.88a17 17 0 0 0 5.32-12.26v-39.86a15.45 15.45 0 0 0-30.86 0v33.75a108.8 108.8 0 0 0-32.66 77.32 109.3 109.3 0 0 0 109.13 109.13A109.3 109.3 0 0 0 251.04 640.8c0-29.02-11.89-56.85-32.74-77.36V252" fill="#000"/><path d="M734.44.67 109.5 0a15.37 15.37 0 0 0-15.49 15.49v92.25a15.45 15.45 0 0 0 30.86 0V30.86l594.19.64v593.4H328.13a15.41 15.41 0 1 0 0 30.86h406.31a15.37 15.37 0 0 0 15.45-15.41V16.09A15.37 15.37 0 0 0 734.44.68" fill="#000"/><path d="M440.7 555.64a18.75 18.75 0 0 0-37.5 0 18.75 18.75 0 0 0 37.5 0" fill="#000"/></svg>