<svg width="960" height="960" viewBox="0 0 960 960" fill="none" xmlns="http://www.w3.org/2000/svg"><path d="M19.776 460.8h103.539a19.776 19.776 0 0 0 0-39.552H19.776a19.776 19.776 0 0 0 0 39.501m0 79.002h103.539a19.776 19.776 0 0 0 0-39.501H19.776a19.776 19.776 0 0 0 0 39.501m123.264 59.226a19.674 19.674 0 0 0-19.674-19.776H19.725a19.725 19.725 0 1 0 0 39.501h103.539a19.674 19.674 0 0 0 19.776-19.776" fill="#000"/><path d="M279.36 322.56a97.92 97.92 0 0 0-97.818-97.92 97.92 97.92 0 0 0-97.817 97.92v39.411a19.776 19.776 0 0 0 39.501 0V322.56c0-32.166 26.163-58.368 58.317-58.368s58.317 26.163 58.317 58.368l.051 408a19.2 19.2 0 0 0 6.861 14.208c22.221 19.2 34.944 46.656 34.944 75.366a100.314 100.314 0 0 1-100.083 100.173A100.314 100.314 0 0 1 81.46 820.134c0-28.659 12.723-56.154 34.995-75.366a21.76 21.76 0 0 0 6.81-15.693v-51.021a19.776 19.776 0 0 0-39.501 0v43.2a139.26 139.26 0 0 0-41.805 98.97A139.904 139.904 0 0 0 181.645 959.91a139.904 139.904 0 0 0 139.686-139.686c0-37.146-15.219-72.768-41.907-99.021V322.56" fill="#000"/><path d="M940.083.858 140.16 0a19.674 19.674 0 0 0-19.827 19.827v118.08a19.776 19.776 0 0 0 39.501 0V39.501l760.563.819v759.552H420.006a19.725 19.725 0 1 0 0 39.501h520.077a19.674 19.674 0 0 0 19.776-19.725V20.595A19.674 19.674 0 0 0 940.083.87" fill="#000"/><path d="M564.096 711.219a24 24 0 0 0-48 0 24 24 0 0 0 48 0" fill="#000"/></svg>