<svg width="960" height="960" viewBox="0 0 960 960" fill="none" xmlns="http://www.w3.org/2000/svg"><path d="M503.32 529.28c0 9.6-7.48 17.4-16.64 17.4A17.08 17.08 0 0 1 470 529.24V97.4c0-9.6 7.48-17.4 16.68-17.4s16.64 7.8 16.64 17.4z" fill="#000"/><path d="M580.12 158.32a15.6 15.6 0 0 1 19.72-10.92c151.6 50.4 253.44 193.92 253.48 357.2 0 207.04-164.52 375.4-366.64 375.4C284.48 880 120 711.6 120 504.6c0-163.24 101.88-306.8 253.4-357.2a15.76 15.76 0 0 1 19.84 10.96 16.8 16.8 0 0 1-10.32 20.92c-138.4 46-231.36 176.76-231.36 325.36 0 188.6 150.4 342.12 335.16 342.12 184.8 0 335.16-153.52 335.16-342.12 0-148.68-93.04-279.44-231.44-325.44a16.8 16.8 0 0 1-10.32-20.88" fill="#000"/></svg>
